<svg width="64" height="64" viewBox="0 0 64 64" xmlns="http://www.w3.org/2000/svg">
  <path d="M32 56V30" stroke="#587043" stroke-width="4" stroke-linecap="round"/>
  <path d="M32 28l-12 8 8-12-12-4 13-1 3-13 3 13 13 1-12 4 8 12-12-8z" fill="#c7ccd4"/>
  <path d="M32 22l-6 4 4-6-6-2 7-1 1-7 1 7 7 1-6 2 4 6-6-4z" fill="#eef1f5"/>
  <circle cx="32" cy="22" r="3" fill="#aeb6c2"/>
  <path d="M24 42c3-2 6-2 8 0-3 3-6 4-8 3z" fill="#6f8a52"/>
  <path d="M40 46c-3-2-6-2-8 0 3 3 6 4 8 3z" fill="#6f8a52"/>
</svg>
