<svg width="64" height="64" viewBox="0 0 64 64" xmlns="http://www.w3.org/2000/svg" role="img" aria-label="10g weight">
  <defs>
    <linearGradient id="weightBody" x1="12" y1="6" x2="52" y2="62" gradientUnits="userSpaceOnUse">
      <stop offset="0" stop-color="#34302b"/>
      <stop offset="1" stop-color="#151413"/>
    </linearGradient>
  </defs>
  <path d="M12 6h40c2.1 0 3.8 1.7 3.8 3.8v2.7c0 1.9-1.5 3.5-3.4 3.7l-10.8 1c-2.1.2-3.7 2-3.7 4.1v3.6h8.2c2.7 0 4.9 2.2 4.9 4.9v26.5c0 3-2.4 5.4-5.4 5.4H18.4c-3 0-5.4-2.4-5.4-5.4V29.8c0-2.7 2.2-4.9 4.9-4.9h8.2v-3.6c0-2.1-1.6-3.9-3.7-4.1l-10.8-1c-1.9-.2-3.4-1.8-3.4-3.7V9.8C8.2 7.7 9.9 6 12 6Z" fill="url(#weightBody)" stroke="#0b0a0a" stroke-width="2" stroke-linejoin="round"/>
  <path d="M18.4 10h27.2" stroke="#696056" stroke-width="1.8" stroke-linecap="round" opacity=".46"/>
  <path d="M18.5 30.8v24.4" stroke="#554e45" stroke-width="1.7" stroke-linecap="round" opacity=".35"/>
  <g fill="none" stroke="#948f87" stroke-linecap="round" stroke-linejoin="round">
    <path d="M20.2 37.1l2.9-2.1v14.8" stroke-width="2.7"/>
    <path d="M19.1 49.8h8.1" stroke-width="2.7"/>
    <path d="M30.5 39.1c0-2.5 1.9-4.3 4.2-4.3s4.2 1.8 4.2 4.3v6.7c0 2.5-1.9 4.3-4.2 4.3s-4.2-1.8-4.2-4.3Z" stroke-width="2.5"/>
    <path d="M42.4 42.1c0-2.3 1.7-4 3.9-4 1.3 0 2.3.4 3.1 1.2" stroke-width="2.1"/>
    <path d="M49.4 38.1v9.8c0 3-1.9 4.7-4.8 4.7-1.2 0-2.2-.2-3.1-.8" stroke-width="2.1"/>
    <path d="M49.2 43.2c-.7 1-1.7 1.4-3 1.4-2.2 0-3.9-1.6-3.9-3.6s1.7-3.6 3.9-3.6" stroke-width="2.1"/>
  </g>
</svg>
