<svg width="64" height="64" viewBox="0 0 64 64" xmlns="http://www.w3.org/2000/svg" role="img" aria-label="5g weight">
  <defs>
    <linearGradient id="weightBody" x1="16" y1="10" x2="48" y2="61" gradientUnits="userSpaceOnUse">
      <stop offset="0" stop-color="#302d29"/>
      <stop offset="1" stop-color="#151413"/>
    </linearGradient>
  </defs>
  <path d="M16.5 10h31c1.9 0 3.5 1.6 3.5 3.5v2.3c0 1.8-1.3 3.2-3.1 3.4l-8.3.8c-1.9.2-3.3 1.8-3.3 3.7v3.2H43c2.5 0 4.5 2 4.5 4.5v23.7c0 2.7-2.2 4.9-4.9 4.9H21.4c-2.7 0-4.9-2.2-4.9-4.9V31.4c0-2.5 2-4.5 4.5-4.5h6.7v-3.2c0-1.9-1.4-3.5-3.3-3.7l-8.3-.8c-1.8-.2-3.1-1.6-3.1-3.4v-2.3c0-1.9 1.6-3.5 3.5-3.5Z" fill="url(#weightBody)" stroke="#0b0a0a" stroke-width="1.8" stroke-linejoin="round"/>
  <path d="M21.5 13.5h21" stroke="#625b52" stroke-width="1.7" stroke-linecap="round" opacity=".46"/>
  <path d="M21.7 32.3v21.4" stroke="#504a42" stroke-width="1.6" stroke-linecap="round" opacity=".35"/>
  <g fill="none" stroke="#8f8a83" stroke-linecap="round" stroke-linejoin="round">
    <path d="M34.7 36.2h-8.6l.7 5.5c.8-.5 1.9-.8 3.1-.8 2.8 0 4.8 1.8 4.8 4.4 0 2.8-2 4.6-5 4.6-2 0-3.5-.8-4.4-2.2" stroke-width="2.6"/>
    <path d="M39.3 43.4c0-2.4 1.8-4.1 4-4.1 1.3 0 2.3.4 3.1 1.3" stroke-width="2.1"/>
    <path d="M46.4 39.3v9.8c0 2.9-1.9 4.7-4.8 4.7-1.2 0-2.2-.2-3.1-.8" stroke-width="2.1"/>
    <path d="M46.2 44.4c-.7 1-1.7 1.5-3 1.5-2.3 0-4-1.6-4-3.7s1.7-3.7 4-3.7" stroke-width="2.1"/>
  </g>
</svg>
