<svg width="512" height="512" viewBox="0 0 512 512" xmlns="http://www.w3.org/2000/svg">
  <rect width="512" height="512" fill="#2f3136"/>
  <rect x="0" y="388" width="512" height="124" fill="#3e4349"/>
  <path d="M118 438c27-114 82-175 138-175s111 61 138 175H118z" fill="#4d4137"/>
  <path d="M155 438c20-84 58-132 101-132s81 48 101 132H155z" fill="#68584a"/>
  <ellipse cx="256" cy="191" rx="79" ry="96" fill="#c8aa8e"/>
  <path d="M176 183c6-63 43-114 80-114s74 51 80 114c-17-12-47-18-80-18s-63 6-80 18z" fill="#1e1f23"/>
  <path d="M183 228c24-40 45-59 73-59s49 19 73 59c-15 49-42 85-73 85s-58-36-73-85z" fill="#c4a68b"/>
  <ellipse cx="228" cy="225" rx="8" ry="10" fill="#1f2023"/>
  <ellipse cx="284" cy="225" rx="8" ry="10" fill="#1f2023"/>
  <path d="M233 268c16 10 30 10 46 0" stroke="#7b5649" stroke-width="8" stroke-linecap="round" fill="none"/>
  <path d="M220 334c14 16 24 25 36 25s22-9 36-25l-8-34h-56l-8 34z" fill="#8b715d"/>
  <path d="M240 312h32l-16 22-16-22z" fill="#b78f6c"/>
  <path d="M232 339l24 36 24-36" stroke="#d0b499" stroke-width="8" stroke-linecap="round" fill="none"/>
</svg>
